<?xml version="1.0" encoding="utf-8"?>
<!-- Generator: Adobe Illustrator 27.8.1, SVG Export Plug-In . SVG Version: 6.00 Build 0)  -->
<svg version="1.1" xmlns="http://www.w3.org/2000/svg" xmlns:xlink="http://www.w3.org/1999/xlink" x="0px" y="0px"
	 viewBox="0 0 1920 1080" style="enable-background:new 0 0 1920 1080;" xml:space="preserve">
<style type="text/css">
	.st0{fill:#E05C5C;}
	.st1{fill:#B23F3F;}
	.st2{display:none;}
	.st3{display:inline;fill:#FF6A6A;}
	.st4{display:inline;fill:#FFA9A9;}
	.st5{display:inline;}
	.st6{fill:#FFFFFF;}
</style>
<g id="Button_Rim">
	<circle class="st0" cx="322" cy="395" r="85"/>
	<circle class="st0" cx="515" cy="382" r="85"/>
	<circle class="st0" cx="684" cy="467" r="86"/>
	<circle class="st0" cx="768" cy="815" r="105"/>
	<circle class="st0" cx="902" cy="587" r="105"/>
	<circle class="st0" cx="919" cy="341" r="105"/>
	<circle class="st0" cx="1113" cy="510" r="105"/>
	<circle class="st0" cx="1132" cy="264" r="105"/>
	<circle class="st0" cx="1355" cy="264" r="105"/>
	<circle class="st0" cx="1336" cy="509" r="105"/>
	<circle class="st0" cx="1561" cy="583" r="105"/>
	<circle class="st0" cx="1579" cy="333" r="105"/>
</g>
<g id="Shadow">
	<circle class="st1" cx="322" cy="395" r="63"/>
	<circle class="st1" cx="515" cy="382" r="63"/>
	<circle class="st1" cx="684" cy="467" r="64"/>
	<circle class="st1" cx="768" cy="815" r="83"/>
	<circle class="st1" cx="902" cy="587" r="83"/>
	<circle class="st1" cx="919" cy="341" r="83"/>
	<circle class="st1" cx="1113" cy="510" r="83"/>
	<circle class="st1" cx="1132" cy="264" r="83"/>
	<circle class="st1" cx="1355" cy="264" r="83"/>
	<circle class="st1" cx="1336" cy="509" r="83"/>
	<circle class="st1" cx="1561" cy="583" r="83"/>
	<circle class="st1" cx="1579" cy="333" r="83"/>
</g>
<g id="Button_Up" class="st2">
	<circle class="st3" cx="322" cy="382" r="63"/>
	<circle class="st3" cx="515" cy="369" r="63"/>
	<circle class="st3" cx="684" cy="454" r="64"/>
	<circle class="st3" cx="768" cy="802" r="83"/>
	<circle class="st3" cx="902" cy="574" r="83"/>
	<circle class="st3" cx="919" cy="328" r="83"/>
	<circle class="st3" cx="1113" cy="497" r="83"/>
	<circle class="st3" cx="1132" cy="251" r="83"/>
	<circle class="st3" cx="1355" cy="251" r="83"/>
	<circle class="st3" cx="1336" cy="496" r="83"/>
	<circle class="st3" cx="1561" cy="570" r="83"/>
	<circle class="st3" cx="1579" cy="320" r="83"/>
</g>
<g id="Button_Down" class="st2">
	<circle class="st4" cx="322" cy="395" r="63"/>
	<circle class="st4" cx="515" cy="382" r="63"/>
	<circle class="st4" cx="684" cy="467" r="64"/>
	<circle class="st4" cx="768" cy="815" r="83"/>
	<circle class="st4" cx="902" cy="587" r="83"/>
	<circle class="st4" cx="919" cy="341" r="83"/>
	<circle class="st4" cx="1113" cy="510" r="83"/>
	<circle class="st4" cx="1132" cy="264" r="83"/>
	<circle class="st4" cx="1355" cy="264" r="83"/>
	<circle class="st4" cx="1336" cy="509" r="83"/>
	<circle class="st4" cx="1561" cy="583" r="83"/>
	<circle class="st4" cx="1579" cy="333" r="83"/>
</g>
<g id="Layer_5" class="st2">
	<g class="st5">
		<path class="st6" d="M100.84,588V460.01h109.69v18.3h18.3v91.39h-18.3V588H100.84z M192.29,569.7v-18.24h18.24v-54.91h-18.24
			v-18.24h-73.15v91.39H192.29z M137.38,551.46v-54.91h54.91v54.91H137.38z M173.98,533.16v-18.3h-18.3v18.3H173.98z"/>
		<path class="st6" d="M247.08,588v-54.84h18.3v-18.3h-18.3v-54.84h91.45v54.84h-18.3v18.3h18.3V588H247.08z M320.22,569.7v-18.24
			h-18.3v-54.91h18.3v-18.24h-54.84v18.24h18.24v54.91h-18.24v18.24H320.22z"/>
		<path class="st6" d="M356.77,588V478.31h18.3v-18.3h109.69V569.7h-18.3V588H356.77z M448.22,569.7v-18.24h18.24v-18.3h-18.24
			v-18.3h-54.91v-18.3h73.15v-18.24h-73.15v18.24h-18.24v18.3h18.24v18.3h54.91v18.3h-73.15v18.24H448.22z"/>
		<path class="st6" d="M521.31,588v-18.3h-18.3v-91.39h18.3v-18.3H631v54.84h-73.15v18.3H631V588H521.31z M612.7,569.7v-18.24
			h-73.15v-54.91h73.15v-18.24h-73.15v18.24h-18.24v54.91h18.24v18.24H612.7z"/>
		<path class="st6" d="M667.55,588v-18.3h-18.3v-91.39h18.3v-18.3h91.39v18.3h18.3v91.39h-18.3V588H667.55z M740.7,569.7v-18.24
			h18.24v-54.91H740.7v-18.24h-54.91v18.24h-18.24v54.91h18.24v18.24H740.7z M685.79,551.46v-54.91h54.91v54.91H685.79z
			 M722.4,533.16v-18.3h-18.3v18.3H722.4z"/>
		<path class="st6" d="M795.49,588V460.01h54.84v18.3h18.3v-18.3h54.84V588h-54.84v-18.3h-18.3V588H795.49z M905.18,569.7v-91.39
			h-18.24v54.84h-18.3v-18.3h-18.3v-18.3h-18.3v-18.24h-18.24v91.39h18.24v-54.84h18.3v18.3h18.3v18.3h18.3v18.24H905.18z"/>
		<path class="st6" d="M941.73,588V460.01h54.84v18.3h18.3v-18.3h54.84V588h-54.84v-18.3h-18.3V588H941.73z M1051.42,569.7v-91.39
			h-18.24v54.84h-18.3v-18.3h-18.3v-18.3h-18.3v-18.24h-18.24v91.39h18.24v-54.84h18.3v18.3h18.3v18.3h18.3v18.24H1051.42z"/>
		<path class="st6" d="M1087.97,588V460.01h127.99V588H1087.97z M1197.66,569.7v-18.24h-73.15v-18.3h73.15v-18.3h-73.15v-18.3h73.15
			v-18.24h-91.39v91.39H1197.66z"/>
		<path class="st6" d="M1252.51,588v-18.3h-18.3v-91.39h18.3v-18.3h109.69v54.84h-73.15v18.3h73.15V588H1252.51z M1343.9,569.7
			v-18.24h-73.15v-54.91h73.15v-18.24h-73.15v18.24h-18.24v54.91h18.24v18.24H1343.9z"/>
		<path class="st6" d="M1416.99,588v-73.15h-36.54v-54.84h127.99v54.84h-36.54V588H1416.99z M1453.59,569.7v-73.15h36.54v-18.24
			h-91.39v18.24h36.54v73.15H1453.59z"/>
		<path class="st6" d="M1526.69,588V460.01h127.99V588H1526.69z M1636.37,569.7v-18.24h-73.15v-18.3h73.15v-18.3h-73.15v-18.3h73.15
			v-18.24h-91.39v91.39H1636.37z"/>
		<path class="st6" d="M1672.92,588V460.01h109.69v18.3h18.3v91.39h-18.3V588H1672.92z M1764.37,569.7v-18.24h18.24v-54.91h-18.24
			v-18.24h-73.15v91.39H1764.37z M1709.47,551.46v-54.91h54.91v54.91H1709.47z M1746.07,533.16v-18.3h-18.3v18.3H1746.07z"/>
	</g>
</g>
</svg>
