<?xml version="1.0" encoding="utf-8"?>
<!-- Generator: Adobe Illustrator 27.8.1, SVG Export Plug-In . SVG Version: 6.00 Build 0)  -->
<svg version="1.1" id="Layer_1" xmlns="http://www.w3.org/2000/svg" xmlns:xlink="http://www.w3.org/1999/xlink" x="0px" y="0px"
	 viewBox="0 0 1920 1080" style="enable-background:new 0 0 1920 1080;" xml:space="preserve">
<style type="text/css">
	.st0{fill:#E05C5C;}
	.st1{fill:#B23F3F;}
	.st2{fill:#FF6A6A;}
	.st3{display:none;}
	.st4{display:inline;fill:#FFA9A9;}
	.st5{display:inline;}
	.st6{fill:#FFFFFF;}
</style>
<g id="Button_Rim">
	<circle class="st0" cx="322" cy="395" r="85"/>
	<circle class="st0" cx="515" cy="382" r="85"/>
	<circle class="st0" cx="684" cy="467" r="86"/>
	<circle class="st0" cx="768" cy="815" r="105"/>
	<circle class="st0" cx="902" cy="587" r="105"/>
	<circle class="st0" cx="919" cy="341" r="105"/>
	<circle class="st0" cx="1113" cy="510" r="105"/>
	<circle class="st0" cx="1132" cy="264" r="105"/>
	<circle class="st0" cx="1355" cy="264" r="105"/>
	<circle class="st0" cx="1336" cy="509" r="105"/>
	<circle class="st0" cx="1561" cy="583" r="105"/>
	<circle class="st0" cx="1579" cy="333" r="105"/>
</g>
<g id="Shadow">
	<circle class="st1" cx="322" cy="395" r="63"/>
	<circle class="st1" cx="515" cy="382" r="63"/>
	<circle class="st1" cx="684" cy="467" r="64"/>
	<circle class="st1" cx="768" cy="815" r="83"/>
	<circle class="st1" cx="902" cy="587" r="83"/>
	<circle class="st1" cx="919" cy="341" r="83"/>
	<circle class="st1" cx="1113" cy="510" r="83"/>
	<circle class="st1" cx="1132" cy="264" r="83"/>
	<circle class="st1" cx="1355" cy="264" r="83"/>
	<circle class="st1" cx="1336" cy="509" r="83"/>
	<circle class="st1" cx="1561" cy="583" r="83"/>
	<circle class="st1" cx="1579" cy="333" r="83"/>
</g>
<g id="Button_Up">
	<circle class="st2" cx="322" cy="382" r="63"/>
	<circle class="st2" cx="515" cy="369" r="63"/>
	<circle class="st2" cx="684" cy="454" r="64"/>
	<circle class="st2" cx="768" cy="802" r="83"/>
	<circle class="st2" cx="902" cy="574" r="83"/>
	<circle class="st2" cx="919" cy="328" r="83"/>
	<circle class="st2" cx="1113" cy="497" r="83"/>
	<circle class="st2" cx="1132" cy="251" r="83"/>
	<circle class="st2" cx="1355" cy="251" r="83"/>
	<circle class="st2" cx="1336" cy="496" r="83"/>
	<circle class="st2" cx="1561" cy="570" r="83"/>
	<circle class="st2" cx="1579" cy="320" r="83"/>
</g>
<g id="Button_Down" class="st3">
	<circle class="st4" cx="322" cy="395" r="63"/>
	<circle class="st4" cx="515" cy="382" r="63"/>
	<circle class="st4" cx="684" cy="467" r="64"/>
	<circle class="st4" cx="768" cy="815" r="83"/>
	<circle class="st4" cx="902" cy="587" r="83"/>
	<circle class="st4" cx="919" cy="341" r="83"/>
	<circle class="st4" cx="1113" cy="510" r="83"/>
	<circle class="st4" cx="1132" cy="264" r="83"/>
	<circle class="st4" cx="1355" cy="264" r="83"/>
	<circle class="st4" cx="1336" cy="509" r="83"/>
	<circle class="st4" cx="1561" cy="583" r="83"/>
	<circle class="st4" cx="1579" cy="333" r="83"/>
</g>
<g id="Layer_5" class="st3">
	<g class="st5">
		<path class="st6" d="M100.8,588V460h109.7v18.3h18.3v91.4h-18.3V588H100.8z M192.3,569.7v-18.2h18.2v-54.9h-18.2v-18.2h-73.2v91.4
			H192.3z M137.4,551.5v-54.9h54.9v54.9H137.4z M174,533.2v-18.3h-18.3v18.3H174z"/>
		<path class="st6" d="M247.1,588v-54.8h18.3v-18.3h-18.3V460h91.4v54.8h-18.3v18.3h18.3V588H247.1z M320.2,569.7v-18.2h-18.3v-54.9
			h18.3v-18.2h-54.8v18.2h18.2v54.9h-18.2v18.2H320.2z"/>
		<path class="st6" d="M356.8,588V478.3h18.3V460h109.7v109.7h-18.3V588H356.8z M448.2,569.7v-18.2h18.2v-18.3h-18.2v-18.3h-54.9
			v-18.3h73.1v-18.2h-73.1v18.2h-18.2v18.3h18.2v18.3h54.9v18.3h-73.1v18.2H448.2z"/>
		<path class="st6" d="M521.3,588v-18.3H503v-91.4h18.3V460H631v54.8h-73.2v18.3H631V588H521.3z M612.7,569.7v-18.2h-73.2v-54.9
			h73.2v-18.2h-73.2v18.2h-18.2v54.9h18.2v18.2H612.7z"/>
		<path class="st6" d="M667.5,588v-18.3h-18.3v-91.4h18.3V460h91.4v18.3h18.3v91.4h-18.3V588H667.5z M740.7,569.7v-18.2h18.2v-54.9
			h-18.2v-18.2h-54.9v18.2h-18.2v54.9h18.2v18.2H740.7z M685.8,551.5v-54.9h54.9v54.9H685.8z M722.4,533.2v-18.3h-18.3v18.3H722.4z"
			/>
		<path class="st6" d="M795.5,588V460h54.8v18.3h18.3V460h54.8v128h-54.8v-18.3h-18.3V588H795.5z M905.2,569.7v-91.4h-18.2v54.8
			h-18.3v-18.3h-18.3v-18.3H832v-18.2h-18.2v91.4H832v-54.8h18.3v18.3h18.3v18.3h18.3v18.2H905.2z"/>
		<path class="st6" d="M941.7,588V460h54.8v18.3h18.3V460h54.8v128h-54.8v-18.3h-18.3V588H941.7z M1051.4,569.7v-91.4h-18.2v54.8
			h-18.3v-18.3h-18.3v-18.3h-18.3v-18.2H960v91.4h18.2v-54.8h18.3v18.3h18.3v18.3h18.3v18.2H1051.4z"/>
		<path class="st6" d="M1088,588V460h128v128H1088z M1197.7,569.7v-18.2h-73.2v-18.3h73.2v-18.3h-73.2v-18.3h73.2v-18.2h-91.4v91.4
			L1197.7,569.7L1197.7,569.7z"/>
		<path class="st6" d="M1252.5,588v-18.3h-18.3v-91.4h18.3V460h109.7v54.8H1289v18.3h73.2V588H1252.5z M1343.9,569.7v-18.2h-73.2
			v-54.9h73.2v-18.2h-73.2v18.2h-18.2v54.9h18.2v18.2H1343.9z"/>
		<path class="st6" d="M1417,588v-73.2h-36.5V460h128v54.8h-36.5V588H1417z M1453.6,569.7v-73.1h36.5v-18.2h-91.4v18.2h36.5v73.1
			H1453.6z"/>
		<path class="st6" d="M1526.7,588V460h128v128H1526.7z M1636.4,569.7v-18.2h-73.2v-18.3h73.2v-18.3h-73.2v-18.3h73.2v-18.2H1545
			v91.4L1636.4,569.7L1636.4,569.7z"/>
		<path class="st6" d="M1672.9,588V460h109.7v18.3h18.3v91.4h-18.3V588H1672.9z M1764.4,569.7v-18.2h18.2v-54.9h-18.2v-18.2h-73.2
			v91.4H1764.4z M1709.5,551.5v-54.9h54.9v54.9H1709.5z M1746.1,533.2v-18.3h-18.3v18.3H1746.1z"/>
	</g>
</g>
</svg>
